<svg height="9" viewBox="0 0 12 9" width="12" xmlns="http://www.w3.org/2000/svg"><path d="m12.36 6.39-3.36 3.38-.55-.54 1.72-1.73.83-.72-1.6.06h-5.26c-.81986693.08110254-1.63488483-.19529337-2.23628584-.75838859-.60140102-.56309522-.93076106-1.35818693-.90371416-2.18161141-.01535983-.81654725.31909595-1.60070939.9190573-2.15481382.59996134-.55410443 1.40818857-.82528646 2.2209427-.74518618v.78c-.59481711-.06384729-1.18816981.13276328-1.62716576.53917-.43899595.40640673-.68070119.98286291-.66283424 1.58083-.01531498.59555174.22794731 1.16857014.66702627 1.57121897.43907897.40264883 1.03097216.59549354 1.62297373.52878103h5.23l1.6.06-.82-.72-1.71-1.76.56-.58z" fill="#fff" transform="translate(-1 -1)"/></svg>