<svg viewBox="0 0 80 80" xmlns="http://www.w3.org/2000/svg"><g transform="translate(-920 -9281)"><g fill="none" stroke="#222" stroke-width="1.5"><circle cx="960" cy="9321" r="40" stroke="none"/><circle cx="960" cy="9321" fill="none" r="39.25"/></g><path d="m17.381 12.619a2.619 2.619 0 1 1 2.619-2.619 2.612 2.612 0 0 1 -2.619 2.619zm0-7.381a2.619 2.619 0 1 1 2.619-2.619 2.612 2.612 0 0 1 -2.619 2.619zm-7.381 14.762a2.619 2.619 0 1 1 2.619-2.619 2.612 2.612 0 0 1 -2.619 2.619zm0-7.381a2.619 2.619 0 1 1 2.619-2.619 2.612 2.612 0 0 1 -2.619 2.619zm0-7.381a2.619 2.619 0 1 1 2.619-2.619 2.612 2.612 0 0 1 -2.619 2.619zm-7.381 14.762a2.619 2.619 0 1 1 2.619-2.619 2.612 2.612 0 0 1 -2.619 2.619zm0-7.381a2.619 2.619 0 1 1 2.619-2.619 2.612 2.612 0 0 1 -2.619 2.619zm0-7.381a2.619 2.619 0 1 1 2.619-2.619 2.612 2.612 0 0 1 -2.619 2.619zm14.762 9.524a2.619 2.619 0 1 1 -2.619 2.619 2.612 2.612 0 0 1 2.619-2.619z" fill="#222" transform="translate(950 9311)"/></g></svg>