<svg viewBox="0 0 20 20" xmlns="http://www.w3.org/2000/svg"><path d="m17.381 12.619a2.619 2.619 0 1 1 2.619-2.619 2.612 2.612 0 0 1 -2.619 2.619zm0-7.381a2.619 2.619 0 1 1 2.619-2.619 2.612 2.612 0 0 1 -2.619 2.619zm-7.381 14.762a2.619 2.619 0 1 1 2.619-2.619 2.612 2.612 0 0 1 -2.619 2.619zm0-7.381a2.619 2.619 0 1 1 2.619-2.619 2.612 2.612 0 0 1 -2.619 2.619zm0-7.381a2.619 2.619 0 1 1 2.619-2.619 2.612 2.612 0 0 1 -2.619 2.619zm-7.381 14.762a2.619 2.619 0 1 1 2.619-2.619 2.612 2.612 0 0 1 -2.619 2.619zm0-7.381a2.619 2.619 0 1 1 2.619-2.619 2.612 2.612 0 0 1 -2.619 2.619zm0-7.381a2.619 2.619 0 1 1 2.619-2.619 2.612 2.612 0 0 1 -2.619 2.619zm14.762 9.524a2.619 2.619 0 1 1 -2.619 2.619 2.612 2.612 0 0 1 2.619-2.619z" fill="#222"/></svg>